<?xml version="1.0" standalone="no"?><!DOCTYPE svg PUBLIC "-//W3C//DTD SVG 1.1//EN" "http://www.w3.org/Graphics/SVG/1.1/DTD/svg11.dtd"><svg t="1696564047736" class="icon" viewBox="0 0 1024 1024" version="1.1" xmlns="http://www.w3.org/2000/svg" p-id="1112" xmlns:xlink="http://www.w3.org/1999/xlink" width="128" height="128"><path d="M508 672H244c-90.4 0-164-73.6-164-164s73.6-164 164-164h264c90.4 0 164 73.6 164 164s-73.6 164-164 164z" fill="#67abf5" p-id="1113"></path><path d="M692.8 672H498.4C352 672 232 552 232 405.6v-51.2C232 208 352 88 498.4 88 660 88 792 220 792 381.6v191.2c0 54.4-44.8 99.2-99.2 99.2z" fill="#67abf5" p-id="1114"></path><path d="M488 444a228 228 0 1 0 456 0 228 228 0 1 0-456 0z" fill="#67abf5" p-id="1115"></path><path d="M288 752h96v144h-96z m348 0h96v144h-96zM464 936l32-80h-32l28.8-104h64L528 832h32" fill="#67abf5" p-id="1116"></path></svg>