<?xml version="1.0" standalone="no"?><!DOCTYPE svg PUBLIC "-//W3C//DTD SVG 1.1//EN" "http://www.w3.org/Graphics/SVG/1.1/DTD/svg11.dtd"><svg t="1696517939603" class="icon" viewBox="0 0 1024 1024" version="1.1" xmlns="http://www.w3.org/2000/svg" p-id="1122" xmlns:xlink="http://www.w3.org/1999/xlink" width="128" height="128"><path d="M512.454932 1024C257.996021 1024 0.39203 959.781856 0.39203 836.246041c0-64.949558 72.263698-119.220473 203.918207-153.450646 26.842892-7.167857 54.56348 5.705029 62.974741 28.525144 8.338119 22.820115-6.80215 46.444785-33.645041 53.539501-95.522661 25.014357-131.727651 56.392015-131.727652 70.654587 0 35.693 156.083736 102.105387 411.274061 102.105386 255.190325 0 411.27406-65.680972 411.27406-102.105386 0-12.799744-29.329699-40.666615-110.809212-64.949558-26.038336-7.094715-40.300908-32.109072-31.085093-54.270915 8.41126-22.088701 37.887242-34.230173 63.779296-26.404043 66.266103 20.040742 178.172437 65.0227 178.172437 146.35593 0 123.535815-257.823415 187.753959-512.062902 187.753959z m364.171002-498.970592c-9.94723 14.335713-19.309328 28.671427-30.280537 42.275726-8.41126 10.971209-19.163045 20.47959-28.598285 30.719385-10.678644 10.971209-21.796136 22.527549-32.547921 34.157031l-35.254152 36.863263c-10.093512 11.629482-20.99158 22.527549-31.889648 34.157031l-35.327293 36.863263c-10.898068 10.898068-20.99158 22.527549-31.962789 33.425617-10.824926 11.629482-22.527549 23.844095-33.425618 35.473577-11.775764 11.629482-22.746974 23.917236-34.449596 36.20499a87.038259 87.038259 0 0 1-57.123429 28.671426c-31.085093 3.364504-56.318874-4.095918-76.359616-23.185822-11.848906-11.629482-22.600691-23.917236-33.645041-35.546717-10.751785-11.55634-22.600691-23.185822-33.425618-34.815304-12.653461-13.677441-26.111478-27.28174-38.691797-40.959181-11.702623-12.287754-23.405246-23.844095-35.181011-36.131849-10.971209-10.971209-20.99158-22.527549-31.962789-33.498758-10.093512-10.239795-19.309328-19.748176-28.525144-29.987972-12.58032-14.335713-25.892054-28.013154-39.423212-42.348867-8.41126-8.850109-17.773359-17.773359-26.111477-27.28174a559.604808 559.604808 0 0 1-46.079079-66.266104 333.817324 333.817324 0 0 1-34.449597-80.528675 93.108995 93.108995 0 0 1-3.364504-36.863262c-1.609111-12.946027-3.364504-25.965195-2.486807-38.911222 0.877697-19.089904 3.437646-37.521535 6.729008-55.953167 3.291363-24.575508 12.58032-47.834472 23.551529-70.28888a304.2682 304.2682 0 0 1 46.883634-72.40998c15.944824-19.089904 33.5719-36.131849 53.832066-51.857249a367.608648 367.608648 0 0 1 73.872808-47.103058A391.745308 391.745308 0 0 1 385.700895 17.793838c22.600691-5.412463 45.12824-10.239795 67.948356-13.604299A415.369978 415.369978 0 0 1 536.664733 0.751893c31.962789 1.389686 63.047882 6.143877 93.108995 13.677441 26.184619 6.070736 50.394421 14.262572 74.823647 25.233781 25.233781 11.55634 49.516724 24.575508 71.312859 40.300908 13.458017 10.166654 27.720588 20.47959 40.37405 31.377658 23.478388 20.47959 43.592271 43.00714 60.34165 67.582649 16.822521 24.575508 31.085093 50.467562 39.423212 77.822443 5.924453 15.652258 9.288957 32.767345 12.726602 49.151017 2.340525 15.652258 3.291363 31.377658 4.827332 47.103058a290.810184 290.810184 0 0 1-18.35849 96.912348c-9.215816 26.623468-22.746974 51.198976-38.618656 75.116212z m-358.392832-311.289775c-97.424337-3.437646-173.857094 63.48673-172.833115 139.919488 0.731414 78.480716 74.677364 139.261215 163.690441 140.650901 96.473499 0.658273 168.517773-62.828458 169.395469-139.261215 0.950838-79.21213-72.92197-138.602942-160.252795-141.309174z" p-id="1123" fill="#3a9ad0"></path></svg>